<svg id="svg" version="1.1" xmlns="http://www.w3.org/2000/svg" xmlns:xlink="http://www.w3.org/1999/xlink" width="400" height="400" viewBox="0, 0, 400,400"><g id="svgg"><path id="path0" d="M96.786 47.607 C 92.286 48.786,89.449 51.701,88.642 55.974 L 88.487 56.797 113.917 56.878 C 151.242 56.997,145.090 53.842,175.154 88.285 C 186.153 100.886,203.821 121.129,214.415 133.269 C 225.010 145.409,233.730 155.342,233.793 155.342 C 233.857 155.342,233.909 150.588,233.909 144.778 L 233.909 134.214 228.947 128.543 C 226.218 125.424,223.718 122.490,223.390 122.024 C 222.842 121.244,217.223 114.781,180.219 72.370 C 160.818 50.135,159.098 48.735,149.457 47.340 C 145.856 46.819,98.886 47.057,96.786 47.607 M252.896 47.607 C 248.375 48.791,245.418 51.824,244.729 55.982 L 244.591 56.814 277.830 56.818 C 313.758 56.823,312.880 56.792,315.919 58.183 C 318.581 59.402,320.174 61.300,321.369 64.679 L 322.073 66.667 322.073 199.808 C 322.073 291.804,322.155 332.949,322.339 332.949 C 326.786 332.949,331.189 328.848,332.228 323.736 C 332.823 320.808,332.718 58.302,332.121 55.980 C 330.907 51.259,328.515 48.833,323.880 47.620 C 320.825 46.821,255.942 46.809,252.896 47.607 M166.031 265.156 C 165.993 302.372,165.991 332.869,166.025 332.927 C 166.165 333.161,168.909 332.375,170.384 331.677 C 173.272 330.311,175.008 327.964,176.008 324.072 C 176.428 322.437,176.454 318.854,176.437 266.148 L 176.419 209.967 171.350 203.832 C 168.561 200.458,166.239 197.650,166.189 197.594 C 166.139 197.537,166.068 227.940,166.031 265.156 " stroke="none" fill="#04fbfb" fill-rule="evenodd"></path><path id="path1" d="M86.628 57.177 C 82.435 58.176,80.040 60.331,78.705 64.308 L 78.060 66.231 78.061 199.014 C 78.063 343.253,77.966 333.463,79.424 336.649 C 80.647 339.320,82.927 341.069,86.500 342.077 C 88.076 342.522,89.968 342.546,122.329 342.546 L 156.494 342.546 158.318 341.973 C 162.368 340.699,165.426 337.013,165.698 333.077 C 165.737 332.514,165.784 301.795,165.802 264.811 C 165.822 224.875,165.929 197.569,166.067 197.569 C 166.194 197.569,172.781 205.429,180.705 215.035 C 194.132 231.315,203.988 243.255,225.222 268.970 L 233.781 279.335 233.920 305.694 C 234.057 331.813,234.063 332.072,234.618 334.056 C 235.883 338.582,237.944 340.650,242.644 342.107 C 244.267 342.610,310.691 342.904,312.862 342.418 C 318.691 341.112,321.661 337.565,321.968 331.542 C 322.376 323.559,322.045 67.582,321.625 65.947 C 320.406 61.202,318.150 58.834,313.466 57.381 C 311.452 56.757,245.166 56.593,242.738 57.207 C 237.407 58.554,234.617 61.922,234.265 67.434 C 234.194 68.560,234.084 69.635,234.022 69.822 C 233.960 70.009,233.909 89.410,233.908 112.935 C 233.905 154.746,233.895 155.697,233.426 155.205 C 233.163 154.929,223.006 143.301,210.856 129.367 C 164.556 76.265,155.844 66.339,154.013 64.599 C 149.336 60.156,144.394 57.877,137.684 57.068 C 134.453 56.679,88.307 56.778,86.628 57.177 " stroke="none" fill="#7b44e4" fill-rule="evenodd"></path><path id="path2" d="M75.907 66.928 C 71.551 68.124,69.282 70.409,68.010 74.878 L 67.434 76.903 67.359 207.294 C 67.307 296.969,67.367 338.572,67.552 340.527 C 68.194 347.313,70.593 350.470,76.197 351.903 C 78.832 352.577,143.361 352.677,146.513 352.013 C 151.158 351.033,154.421 347.890,155.221 343.623 L 155.399 342.674 122.014 342.674 C 89.821 342.674,88.560 342.657,86.690 342.178 C 82.093 341.003,79.804 338.811,78.518 334.357 L 77.927 332.310 77.927 199.424 C 77.927 81.464,77.884 66.541,77.543 66.562 C 77.332 66.574,76.596 66.739,75.907 66.928 M232.118 66.946 C 227.714 68.115,225.356 70.489,224.008 75.112 C 223.599 76.513,223.553 78.630,223.478 99.310 L 223.396 121.972 228.589 127.939 L 233.781 133.906 233.844 128.949 C 234.054 112.415,234.007 66.541,233.781 66.556 C 233.640 66.565,232.892 66.741,232.118 66.946 M176.583 221.431 L 176.583 232.608 187.425 245.734 C 193.387 252.954,203.921 265.708,210.832 274.076 L 223.399 289.291 223.483 315.663 C 223.560 339.692,223.607 342.180,224.010 343.674 C 225.284 348.391,228.044 351.012,232.800 352.020 C 235.906 352.678,300.463 352.571,303.073 351.903 C 307.737 350.710,311.452 346.827,311.452 343.146 C 311.452 342.690,310.337 342.674,278.096 342.674 C 245.931 342.674,244.670 342.657,242.800 342.178 C 238.260 341.017,235.877 338.731,234.479 334.196 C 234.099 332.962,234.047 330.099,233.974 306.238 L 233.893 279.655 230.387 275.400 C 228.459 273.060,219.802 262.566,211.149 252.079 C 202.497 241.593,191.339 228.061,186.353 222.009 C 181.368 215.956,177.130 210.836,176.936 210.630 C 176.636 210.311,176.583 211.923,176.583 221.431 " stroke="none" fill="#fb04fb" fill-rule="evenodd"></path><path id="path3" d="M233.974 68.970 C 233.977 69.533,234.029 69.733,234.090 69.415 C 234.151 69.096,234.149 68.636,234.085 68.391 C 234.021 68.146,233.971 68.407,233.974 68.970 M77.926 199.872 C 77.926 272.009,77.955 301.520,77.991 265.451 C 78.027 229.383,78.027 170.361,77.991 134.293 C 77.955 98.225,77.926 127.735,77.926 199.872 M176.328 220.985 C 176.328 227.155,176.383 232.148,176.450 232.080 C 176.621 231.909,176.637 210.077,176.466 209.906 C 176.390 209.830,176.328 214.816,176.328 220.985 M233.979 330.390 C 233.979 331.024,234.029 331.283,234.090 330.966 C 234.151 330.649,234.151 330.131,234.090 329.814 C 234.029 329.498,233.979 329.757,233.979 330.390 M244.722 342.595 C 244.968 342.659,245.371 342.659,245.617 342.595 C 245.864 342.530,245.662 342.478,245.170 342.478 C 244.677 342.478,244.475 342.530,244.722 342.595 " stroke="none" fill="#a52bec" fill-rule="evenodd"></path><path id="path4" d="M136.724 56.990 C 136.971 57.055,137.374 57.055,137.620 56.990 C 137.866 56.926,137.665 56.873,137.172 56.873 C 136.679 56.873,136.478 56.926,136.724 56.990 M155.086 65.643 C 155.851 66.417,156.534 67.051,156.604 67.051 C 156.675 67.051,156.107 66.417,155.342 65.643 C 154.578 64.869,153.895 64.235,153.824 64.235 C 153.754 64.235,154.322 64.869,155.086 65.643 M322.015 69.098 C 322.015 69.731,322.065 69.990,322.126 69.674 C 322.187 69.357,322.187 68.839,322.126 68.522 C 322.065 68.205,322.015 68.464,322.015 69.098 M165.961 264.235 C 165.961 300.972,165.991 315.963,166.027 297.548 C 166.063 279.133,166.063 249.076,166.027 230.754 C 165.991 212.432,165.961 227.498,165.961 264.235 M322.015 330.390 C 322.015 331.024,322.065 331.283,322.126 330.966 C 322.187 330.649,322.187 330.131,322.126 329.814 C 322.065 329.498,322.015 329.757,322.015 330.390 " stroke="none" fill="#5580ed" fill-rule="evenodd"></path></g></svg>